{"title":"NFL 2011 Super Bowl XLV Steelers vs Packers HDTV XviD-FQM","uid":6156947,"size":1566309575,"categoryP":"video","categoryS":"tv_shows","magnet":"?xt=urn:btih:0c895cb5c3bdd31a8779b84aee98490111e0e021&amp;dn=NFL+2011+Super+Bowl+XLV+Steelers+vs+Packers+HDTV+XviD-FQM&amp;tr=udp%3A%2F%2Ftracker.openbittorrent.com%3A80&amp;tr=udp%3A%2F%2Fopen.demonii.com%3A1337&amp;tr=udp%3A%2F%2Ftracker.coppersurfer.tk%3A6969&amp;tr=udp%3A%2F%2Fexodus.desync.com%3A6969","seeders":0,"leechers":1,"uploader":"TheCloon","files":-1,"time":1297073885,"description":"NFL 2011 Super Bowl XLV Steelers vs Packers HDTV XviD-FQM\n\n\nFormat                           : AVI\nFormat/Info                      : Audio Video Interleave\nFile size                        : 1.46 GiB\nDuration                         : 2h 43mn\nOverall bit rate                 : 1 274 Kbps\nWriting application              : transcode-1.0.4\n\nVideo\nID                               : 0\nFormat                           : MPEG-4 Visual\nFormat profile                   : Advanced Simple@L5\nFormat settings, BVOP            : 2\nFormat settings, QPel            : No\nFormat settings, GMC             : No warppoints\nFormat settings, Matrix          : Default (H.263)\nCodec ID                         : XVID\nCodec ID/Hint                    : XviD\nDuration                         : 2h 43mn\nBit rate                         : 1 116 Kbps\nWidth                            : 624 pixels\nHeight                           : 352 pixels\nDisplay aspect ratio             : 16:9\nFrame rate                       : 29.970 fps\nColor space                      : YUV\nChroma subsampling               : 4:2:0\nBit depth                        : 8 bits\nScan type                        : Progressive\nCompression mode                 : Lossy\nBits/(Pixel*Frame)               : 0.169\nStream size                      : 1.28 GiB (88%)\nWriting library                  : XviD 1.2.1 (UTC 2008-12-04)\n\nAudio\nID                               : 1\nFormat                           : MPEG Audio\nFormat version                   : Version 1\nFormat profile                   : Layer 3\nMode                             : Joint stereo\nMode extension                   : MS Stereo\nCodec ID                         : 55\nCodec ID/Hint                    : MP3\nDuration                         : 2h 43mn\nBit rate mode                    : Variable\nBit rate                         : 128 Kbps\nChannel(s)                       : 2 channels\nSampling rate                    : 48.0 KHz\nCompression mode                 : Lossy\nStream size                      : 169 MiB (11%)\nAlignment                        : Aligned on interleaves\nInterleave, duration             : 24 ms (0.72 video frame)\nWriting library                  : LAME3.98.2\n\n\nPlot:\nThe Super Bowl is the final match-up between the two teams that have made it the farthest in their division (the AFC and the NFC). There have been 44 so far. The most recent champion was the New Orleans Saints.","torrent":{"xt":"urn:btih:0c895cb5c3bdd31a8779b84aee98490111e0e021","amp;dn":"NFL+2011+Super+Bowl+XLV+Steelers+vs+Packers+HDTV+XviD-FQM","amp;tr":["udp%3A%2F%2Ftracker.openbittorrent.com%3A80","udp%3A%2F%2Fopen.demonii.com%3A1337","udp%3A%2F%2Ftracker.coppersurfer.tk%3A6969","udp%3A%2F%2Fexodus.desync.com%3A6969"],"infoHash":"0c895cb5c3bdd31a8779b84aee98490111e0e021","infoHashBuffer":{"type":"Buffer","data":[12,137,92,181,195,189,211,26,135,121,184,74,238,152,73,1,17,224,224,33]},"announce":[],"urlList":[]}}